<svg width="40" height="41" viewBox="0 0 40 41" fill="none" xmlns="http://www.w3.org/2000/svg">
<g clip-path="url(#clip0_4045_1543)">
<path d="M20 0.4599C8.93333 0.4599 0 9.39323 0 20.4599C0 31.5266 8.93333 40.4599 20 40.4599C31.0667 40.4599 40 31.5266 40 20.4599C40 9.39323 31.0667 0.4599 20 0.4599ZM20 38.4599C10 38.4599 2 30.4599 2 20.4599C2 10.4599 10 2.4599 20 2.4599C30 2.4599 38 10.4599 38 20.4599C38 30.4599 30 38.4599 20 38.4599Z" fill="#040F20"/>
<path d="M21.0666 20.4599L17.4666 16.9932C17.1999 16.7266 17.1999 16.1932 17.4666 15.9266C17.7333 15.6599 18.2666 15.6599 18.5333 15.9266L22.3999 19.6599C22.5333 19.7932 22.5333 19.9266 22.6666 20.0599C22.6666 20.1932 22.7999 20.3266 22.7999 20.4599C22.7999 20.5932 22.7999 20.7266 22.6666 20.8599C22.6666 20.9932 22.5333 21.1266 22.3999 21.2599L18.5333 24.9932C18.2666 25.2599 17.7333 25.2599 17.4666 24.9932C17.1999 24.7266 17.1999 24.1932 17.4666 23.9266L21.0666 20.4599Z" fill="#040F20"/>
</g>
<defs>
<clipPath id="clip0_4045_1543">
<rect width="40" height="40" fill="white" transform="translate(0 0.4599)"/>
</clipPath>
</defs>
</svg>
