<svg width="33" height="36" viewBox="0 0 33 36" fill="none" xmlns="http://www.w3.org/2000/svg">
<path d="M32.2526 3.6697C32.1303 3.54738 31.9672 3.46583 31.8041 3.46583H25.6064V0.611617C25.6064 0.285421 25.321 0 24.9948 0H7.58405C7.25786 0 6.97244 0.285421 6.97244 0.611617V3.46583H0.611617C0.448519 3.46583 0.285422 3.54738 0.163098 3.6697C0.0407747 3.79203 0 3.95512 0 4.11822C0 4.24055 0.122324 6.85011 1.06014 9.86743C2.36492 13.9041 4.56674 16.7583 7.50251 18.0631C8.48109 21.3251 10.7237 23.8939 13.5371 24.9132V25.0355C13.5371 28.4198 10.9683 31.1109 7.6656 31.1109C7.33941 31.1109 7.05399 31.3964 7.05399 31.7225V35.1884C7.05399 35.5146 7.33941 35.8 7.6656 35.8H24.9948C25.321 35.8 25.6064 35.5146 25.6064 35.1884V31.7225C25.6064 31.3964 25.321 31.1109 24.9948 31.1109C21.6513 31.1109 18.9194 28.379 18.9194 25.0355V24.954C21.8551 23.9346 24.1385 21.3251 25.1171 17.9815C27.9305 16.636 30.0916 13.8226 31.3556 9.86743C32.3342 6.85011 32.4157 4.19977 32.4157 4.11822C32.4565 3.95512 32.3749 3.79203 32.2526 3.6697ZM1.26401 4.68907H6.97244V14.4749C6.97244 15.1681 7.01321 15.8205 7.13553 16.4729C2.48724 13.7002 1.46788 6.80934 1.26401 4.68907ZM24.3831 32.2934V34.536H8.27722V32.2934C11.8654 32.008 14.638 29.0314 14.7196 25.2394C15.2089 25.321 15.739 25.4025 16.269 25.4025C16.7583 25.4025 17.2476 25.3617 17.6961 25.2802C17.8592 28.9907 20.7542 32.008 24.3831 32.2934ZM17.9 24.0162C17.3699 24.1385 16.8399 24.22 16.3098 24.22C15.6982 24.22 15.0866 24.1385 14.5157 23.9754C14.3934 23.9346 14.1895 23.8531 14.108 23.8531C10.7237 22.7114 8.19567 18.9601 8.19567 14.5157V1.26401H24.3831V3.71048V4.48519V14.5157C24.3831 18.9601 21.8551 22.7114 18.4301 23.8531M25.4841 16.3913C25.5656 15.7797 25.6472 15.1273 25.6472 14.4749V4.68907H31.1925C30.9886 6.80934 30.01 13.4964 25.4841 16.3913Z" fill="#071937"/>
<path d="M22.1813 8.56268L18.8378 8.07339L17.3292 5.0153C17.1661 4.6891 16.7991 4.44446 16.4321 4.44446C16.0651 4.44446 15.6982 4.64833 15.5351 5.0153L14.0264 8.07339L10.6829 8.56268C10.3159 8.60346 9.98975 8.88888 9.86742 9.25585C9.7451 9.62282 9.82665 10.0306 10.1121 10.2752L12.5585 12.6401L11.9877 15.9836C11.9061 16.3506 12.0692 16.7176 12.3954 16.9622C12.5585 17.0845 12.7624 17.1661 13.0071 17.1661C13.1702 17.1661 13.3333 17.1253 13.4556 17.0438L16.5544 15.4943L19.4902 17.0438C19.8164 17.2069 20.2241 17.2069 20.5503 16.9622C20.8765 16.7176 20.9989 16.3506 20.9581 15.9836L20.3872 12.6401L22.8337 10.2752C23.1191 9.98979 23.2007 9.62282 23.0784 9.25585C22.8745 8.88888 22.5891 8.60346 22.1813 8.56268ZM19.2456 11.9877C19.0825 12.1101 19.0417 12.3139 19.0825 12.5178L19.6533 15.739L16.8399 14.2711C16.6768 14.1896 16.4729 14.1896 16.269 14.2711L13.2517 15.7798L13.8225 12.5178C13.8633 12.3139 13.7818 12.1101 13.6595 11.9877L11.3353 9.70437L14.5565 9.21507C14.7604 9.1743 14.9235 9.05197 15.005 8.88888L16.4321 5.95311L17.8592 8.88888C17.9408 9.05197 18.1039 9.21507 18.3077 9.21507L21.5289 9.70437L19.2456 11.9877Z" fill="#071937"/>
</svg>
