<svg width="28" height="37" viewBox="0 0 28 37" fill="none" xmlns="http://www.w3.org/2000/svg">
<path d="M2.5311 6.07062L7.11867 8.08757C6.20907 9.4322 5.73449 10.9746 5.73449 12.596C5.73449 17.0254 9.33336 20.6638 13.8023 20.6638C18.2712 20.6638 21.8701 17.065 21.8701 12.596C21.8701 11.0141 21.3955 9.4322 20.5255 8.12712L24.5594 6.22881V13.9011L23.3334 16.5113C23.2543 16.709 23.2543 16.9068 23.3729 17.065C23.4916 17.2232 23.6893 17.3418 23.887 17.3418H26.2204C26.4181 17.3418 26.6158 17.2627 26.6949 17.065C26.8136 16.9068 26.8136 16.709 26.7345 16.5113L25.6667 13.9011V5.71469C25.6667 5.3983 25.6271 5.16102 25.0735 4.92373C24.9548 4.88418 14.0791 0.059322 14.0791 0.059322C13.9209 -0.019774 13.7627 -0.019774 13.6045 0.059322L2.5311 4.96328C2.33336 5.04237 2.17517 5.27966 2.17517 5.51695C2.17517 5.75424 2.29381 5.95198 2.5311 6.07062ZM20.6441 12.596C20.6441 16.3927 17.5594 19.4774 13.7627 19.4774C9.96613 19.4774 6.88139 16.3927 6.88139 12.596C6.88139 11.1328 7.35596 9.74859 8.18647 8.56215L13.565 10.9746C13.6441 11.0141 13.7232 11.0141 13.8023 11.0141C13.8814 11.0141 13.9605 11.0141 14.0396 10.9746L19.339 8.6017C20.2091 9.78814 20.6441 11.1723 20.6441 12.596ZM24.7966 16.1554L25.0735 15.5621L25.3108 16.1554H24.7966ZM13.8418 1.24576L23.452 5.51695L13.8418 9.78814L4.23167 5.51695L13.8418 1.24576Z" fill="#071937"/>
<path d="M14 22.0875C6.28814 22.0875 0 28.3757 0 36.0875C0 36.4039 0.276836 36.6807 0.59322 36.6807H27.4068C27.7232 36.6807 28 36.4039 28 36.0875C28 28.3757 21.7119 22.0875 14 22.0875ZM1.22599 35.4943C1.54237 28.692 7.15819 23.274 14.0395 23.274C20.9209 23.274 26.4972 28.7316 26.8136 35.4943H1.22599Z" fill="#071937"/>
</svg>
