<svg width="64" height="72" viewBox="0 0 64 72" fill="none" xmlns="http://www.w3.org/2000/svg">
<g filter="url(#filter0_b_4045_1625)">
<g clip-path="url(#clip0_4045_1625)">
<path d="M30 3.6C15.4 3.6 3.6 15.4 3.6 30C3.6 44.6 15.4 56.4 30 56.4C44.6 56.4 56.4 44.6 56.4 30C56.4 15.4 44.6 3.6 30 3.6ZM0 30C0 13.4 13.4 0 30 0C46.6 0 60 13.4 60 30C60 46.6 46.6 60 30 60C13.4 60 0 46.6 0 30Z" fill="white"/>
<path d="M23 19.2C23.6 18.8 24.2 18.8 24.8 19.2L41.6 28.8C42.2 29.2 42.6 29.8 42.6 30.4C42.6 31 42.2 31.6 41.6 32L24.8 41.6C24.2 42 23.6 42 23 41.6C22.4 41.2 22 40.6 22 40V20.8C22 20.2 22.4 19.6 23 19.2ZM25.8 24V36.8L37.2 30.4L25.8 24Z" fill="white"/>
</g>
</g>
<defs>
<filter id="filter0_b_4045_1625" x="-5" y="-5" width="73.2227" height="81.3407" filterUnits="userSpaceOnUse" color-interpolation-filters="sRGB">
<feFlood flood-opacity="0" result="BackgroundImageFix"/>
<feGaussianBlur in="BackgroundImageFix" stdDeviation="2.5"/>
<feComposite in2="SourceAlpha" operator="in" result="effect1_backgroundBlur_4045_1625"/>
<feBlend mode="normal" in="SourceGraphic" in2="effect1_backgroundBlur_4045_1625" result="shape"/>
</filter>
<clipPath id="clip0_4045_1625">
<rect width="60" height="60" fill="white"/>
</clipPath>
</defs>
</svg>
