<svg width="40" height="40" viewBox="0 0 40 40" fill="none" xmlns="http://www.w3.org/2000/svg">
<path d="M30.3734 12.3426L37.0214 19.2226C37.2216 19.4362 37.333 19.7179 37.333 20.0106C37.333 20.3034 37.2216 20.5851 37.0214 20.7986L30.372 27.6786C30.2731 27.7807 30.1547 27.8618 30.0238 27.9172C29.8929 27.9727 29.7522 28.0012 29.61 28.0012C29.4679 28.0012 29.3272 27.9727 29.1963 27.9172C29.0654 27.8618 28.947 27.7807 28.848 27.6786C28.6474 27.465 28.5358 27.183 28.5358 26.89C28.5358 26.5969 28.6474 26.3149 28.848 26.1013L33.6974 21.0853H3.77338C3.62467 21.085 3.47753 21.0549 3.34069 20.9967C3.20384 20.9385 3.08009 20.8534 2.97675 20.7464C2.87342 20.6395 2.79261 20.5129 2.73912 20.3741C2.68564 20.2354 2.66056 20.0873 2.66538 19.9386C2.66538 19.3653 3.08138 18.792 3.77338 18.792H33.8347L28.9854 13.776C28.7851 13.5624 28.6737 13.2807 28.6737 12.988C28.6737 12.6952 28.7851 12.4135 28.9854 12.2C29.2627 11.9133 29.956 11.9133 30.372 12.3426H30.3734Z" fill="black"/>
</svg>
