<svg width="86" height="75" viewBox="0 0 86 75" fill="none" xmlns="http://www.w3.org/2000/svg">
<path d="M85.5414 53.7C85.5414 53.6 85.5414 53.6 85.5414 53.5V16.2C85.5414 7.2 78.2414 0 69.3414 0H56.0414C55.2414 0 54.5414 0.7 54.5414 1.5C54.5414 2.3 55.2414 3 56.0414 3H69.3414C76.6414 3 82.5414 8.9 82.5414 16.2V47.1C80.2414 44 76.8414 41.8 73.0414 40.8C68.6414 39.7 64.1414 40.4 60.2414 42.8C56.3414 45.1 53.6414 48.8 52.6414 53.2C52.4414 54 52.3414 54.9 52.2414 55.7H33.6414C33.4414 53.2 32.6414 50.7 31.2414 48.4C28.9414 44.5 25.2414 41.8 20.8414 40.8C16.4414 39.7 11.9414 40.4 8.04141 42.8C6.24141 43.9 4.64141 45.4 3.34141 47V16.2C3.34141 8.9 9.24141 3 16.5414 3H29.9414C30.7414 3 31.4414 2.3 31.4414 1.5C31.4414 0.7 30.7414 0 29.9414 0H16.6414C7.64141 0 0.44141 7.3 0.44141 16.2V53.4C-1.65859 62.4 3.94141 71.4 12.8414 73.6C14.1414 73.9 15.5414 74.1 16.8414 74.1C24.4414 74.1 31.3414 68.9 33.2414 61.2C33.4414 60.4 33.5414 59.5 33.6414 58.7H52.3414C52.5414 61.2 53.3414 63.7 54.7414 66C57.0414 69.9 60.7414 72.6 65.1414 73.6C66.4414 73.9 67.8414 74.1 69.1414 74.1C76.7414 74.1 83.6414 68.9 85.5414 61.2C86.0414 58.7 86.1414 56.1 85.5414 53.7ZM30.3414 60.5C28.5414 67.9 21.0414 72.5 13.5414 70.7C6.14141 68.9 1.54141 61.4 3.34141 53.9C4.24141 50.3 6.44141 47.3 9.64141 45.3C11.8414 44 14.3414 43.3 16.8414 43.3C17.9414 43.3 19.0414 43.4 20.1414 43.7C23.7414 44.6 26.7414 46.8 28.7414 50C30.6414 53.1 31.2414 56.9 30.3414 60.5ZM82.5414 60.5C80.7414 67.9 73.2414 72.5 65.7414 70.7C62.1414 69.8 59.1414 67.6 57.1414 64.4C55.8414 62.2 55.1414 59.8 55.1414 57.3V57.2V57.1C55.1414 56 55.2414 55 55.5414 53.9C56.4414 50.3 58.6414 47.3 61.8414 45.3C64.0414 44 66.5414 43.3 69.0414 43.3C70.1414 43.3 71.2414 43.4 72.3414 43.7C75.9414 44.6 78.9414 46.8 80.9414 50C82.8414 53.1 83.4414 56.9 82.5414 60.5Z" fill="white"/>
</svg>
