<svg width="35" height="35" viewBox="0 0 35 35" fill="none" xmlns="http://www.w3.org/2000/svg">
<path d="M0.785877 30.4093L13.7038 17.4645L0.855919 4.59053C-0.191822 3.54008 -0.191822 1.83728 0.855919 0.787404C1.90424 -0.262468 3.60302 -0.262468 4.65133 0.787404L17.4992 13.6614L30.3466 0.787404C31.3949 -0.262468 33.0937 -0.262468 34.142 0.787404C35.1903 1.83785 35.1903 3.54066 34.142 4.59053L21.2947 17.4645L34.2138 30.4093C35.2621 31.4598 35.2621 33.162 34.2138 34.2125C33.6896 34.7377 33.003 35 32.3158 35C31.6286 35 30.9419 34.7377 30.4178 34.2125L17.4992 21.2677L4.58129 34.2125C4.05713 34.7377 3.3705 35 2.6833 35C1.99609 35 1.30946 34.7377 0.785305 34.2125C-0.261864 33.1626 -0.261868 31.4598 0.785877 30.4093Z" fill="white"/>
</svg>
