<svg width="88" height="81" viewBox="0 0 88 81" fill="none" xmlns="http://www.w3.org/2000/svg">
<path d="M72.5649 26.4414V23.9276C75.9727 22.0655 78.1777 18.6207 78.1777 14.8966V10.4276C78.1777 4.65517 73.1663 0 66.9522 0C60.738 0 55.6264 4.65517 55.6264 10.4276V14.8966C55.6264 18.5276 57.631 21.8793 61.0387 23.7414V26.4414C59.5353 26.8138 58.1321 27.3724 56.7289 28.1172C54.5239 23.369 49.4123 20.0172 43.4989 20.0172C37.6856 20.0172 32.7745 23.1828 30.4692 27.8379C29.1663 27.2793 27.8633 26.7207 26.5604 26.4414V23.9276C29.9681 22.0655 32.1731 18.6207 32.1731 14.8966V10.4276C32.1731 4.65517 27.1617 0 20.9476 0C14.7335 0 9.72209 4.65517 9.72209 10.4276V14.8966C9.72209 18.5276 11.7267 21.8793 15.1344 23.7414V26.4414C6.1139 28.8621 0 36.4035 0 45.1552C0 45.9 0.701594 46.5517 1.50342 46.5517H31.1708C31.2711 46.5517 31.3713 46.5517 31.4715 46.5517C32.6743 48.3207 34.3781 49.8103 36.3827 50.9276V55.1172C24.4556 58.0966 16.3371 68.0586 16.3371 79.6034C16.3371 80.3483 17.0387 81 17.8405 81H69.4579C70.2597 81 70.9613 80.3483 70.9613 79.6034C70.9613 68.1517 62.4419 58.0035 50.615 55.1172V51.1138C52.7198 49.9966 54.4237 48.5069 55.7266 46.6448H86.4966C87.2984 46.6448 88 45.9931 88 45.2483C87.8998 36.4966 81.4852 28.769 72.5649 26.4414ZM3.00683 43.8517C3.6082 36.5897 9.22096 30.631 16.9385 28.9552C17.6401 28.769 18.1412 28.2103 18.1412 27.5586V22.9035C18.1412 22.3448 17.8405 21.8793 17.3394 21.6931C14.533 20.3897 12.7289 17.7828 12.7289 14.8966V10.4276C12.7289 6.23793 16.4374 2.7931 20.9476 2.7931C25.4579 2.7931 29.1663 6.23793 29.1663 10.4276V14.8966C29.1663 17.7828 27.262 20.4828 24.4556 21.7862C23.9544 21.9724 23.5535 22.531 23.5535 23.0897V27.5586C23.5535 28.2103 24.0547 28.769 24.7563 28.9552C26.4601 29.3276 28.0638 29.8862 29.5672 30.631C29.3667 31.5621 29.2665 32.4931 29.2665 33.5172V39.4759C29.2665 40.9655 29.5672 42.4552 30.0683 43.8517H3.00683ZM48.41 48.9724C47.9089 49.1586 47.508 49.7172 47.508 50.2759V56.2345C47.508 56.8862 48.0091 57.4448 48.7107 57.631C59.3348 59.7724 67.1526 68.3379 67.8542 78.3H19.344C19.9453 68.3379 27.5626 59.9586 38.1868 57.7241C38.8884 57.5379 39.3895 56.9793 39.3895 56.3276V50.1828C39.3895 49.6241 39.0888 49.1586 38.5877 48.9724C34.6788 47.2035 32.2733 43.5724 32.2733 39.569V33.6103C32.2733 27.7448 37.385 23.0897 43.5991 23.0897C49.8132 23.0897 54.9248 27.8379 54.9248 33.6103V39.4759C54.9248 43.4793 52.4191 47.2035 48.41 48.9724ZM57.1298 43.8517C57.631 42.4552 57.9317 40.9655 57.9317 39.4759V33.5172C57.9317 32.6793 57.8314 31.7483 57.631 31.0035C59.2346 30.0724 61.0387 29.4207 62.8428 29.0483C63.5444 28.8621 64.0456 28.3034 64.0456 27.6517V22.9966C64.0456 22.4379 63.7449 21.9724 63.2437 21.7862C60.4374 20.4828 58.6333 17.8759 58.6333 14.9897V10.5207C58.6333 6.33103 62.3417 2.88621 66.8519 2.88621C71.3622 2.88621 75.0706 6.33103 75.0706 10.5207V14.9897C75.0706 17.8759 73.1663 20.5759 70.3599 21.8793C69.8588 22.0655 69.4579 22.6241 69.4579 23.1828V27.6517C69.4579 28.3034 69.959 28.8621 70.6606 29.0483C78.3781 30.631 84.0911 36.7759 84.7927 43.9448L57.1298 43.8517Z" fill="white"/>
</svg>
