<svg width="91" height="97" viewBox="0 0 91 97" fill="none" xmlns="http://www.w3.org/2000/svg">
<path d="M90.287 29.3451L46.3899 0.267662C45.8512 -0.0892208 45.1499 -0.0892208 44.6111 0.267662L0.714086 29.3451C0.268317 29.6404 0 30.1386 0 30.6707C0 31.2028 0.267248 31.701 0.714086 31.9963L7.38138 36.4127V59.6877C7.38138 60.2304 7.65932 60.736 8.11899 61.0292L44.8912 84.4528C45.1553 84.6206 45.4556 84.7045 45.7571 84.7045C46.0724 84.7045 46.3889 84.6121 46.6604 84.4273L65.8456 71.4223V80.491L58.6983 94.6941C58.4503 95.188 58.477 95.7753 58.7678 96.2448C59.0596 96.7132 59.577 97 60.1318 97H74.7652C75.3211 97 75.8374 96.7132 76.1293 96.2448C76.42 95.7753 76.4478 95.188 76.1988 94.6941L69.0515 80.491V69.2481L81.2134 61.0037C81.6506 60.7073 81.9125 60.2145 81.9125 59.6877V37.5428L90.2859 31.9963C90.7317 31.701 91 31.2028 91 30.6707C91 30.1386 90.7327 29.6404 90.287 29.3451ZM62.7273 93.8135L67.4491 84.4305L72.1708 93.8135H62.7273ZM45.7293 81.2015L10.5884 58.8167V38.537L44.6111 61.0748C44.8805 61.2533 45.1905 61.3425 45.5005 61.3425C45.8105 61.3425 46.1206 61.2533 46.3899 61.0748L65.8456 48.1867V67.5646L45.7293 81.2015ZM78.7066 58.8464L69.0526 65.3914V46.0624L78.7066 39.6671V58.8464ZM79.7531 35.1445C79.5169 35.2316 79.3084 35.3707 79.1395 35.5513L67.4491 43.2955L46.3899 29.3451C45.6513 28.8566 44.6571 29.0552 44.1664 29.787C43.6758 30.5188 43.8746 31.5087 44.6111 31.9963L64.5585 45.2095L45.5005 57.8342L4.49404 30.6707L45.5005 3.50829L86.507 30.6707L79.7531 35.1445Z" fill="white"/>
</svg>
