<svg width="32" height="32" viewBox="0 0 32 32" fill="none" xmlns="http://www.w3.org/2000/svg">
<path d="M0.718515 27.8028L12.5292 15.9676L0.782555 4.19706C-0.175381 3.23665 -0.175381 1.6798 0.782555 0.719912C1.74102 -0.239971 3.29419 -0.239971 4.25265 0.719912L15.9993 12.4904L27.7455 0.719912C28.7039 -0.239971 30.2571 -0.239971 31.2155 0.719912C32.174 1.68032 32.174 3.23717 31.2155 4.19706L19.4694 15.9676L31.2812 27.8028C32.2396 28.7632 32.2396 30.3195 31.2812 31.28C30.8019 31.7602 30.1741 32 29.5458 32C28.9175 32 28.2898 31.7602 27.8105 31.28L15.9993 19.4447L4.18861 31.28C3.70938 31.7602 3.0816 32 2.4533 32C1.825 32 1.19722 31.7602 0.717991 31.28C-0.239422 30.3201 -0.239422 28.7632 0.718515 27.8028Z" fill="#071937"/>
</svg>
